# xmcd CD database file
#
# Track frame offsets:
#	150
#	18906
#	38709
#	59960
#	78102
#	100068
#	124076
#	144948
#	180798
#	196357
#
# Disc length: 2871 seconds
#
# Revision: 0
# Processed by: cddbd v1.5.1PL0 Copyright (c) Steve Scherf et al.
# Submitted via: CDex 1.51
#
DISCID=780b350a
DTITLE=Korenos - Asian Street Style
DYEAR=2004
DGENRE=Fusion
TTITLE0=Azteca
TTITLE1=Asian Street Style
TTITLE2=Jewel Of Tha Snake
TTITLE3=Dancer On The Sand
TTITLE4=Color Of Your Mind
TTITLE5=Fu-Ri-Ni-Ge
TTITLE6=Malashuge Maija
TTITLE7=Acoustic Medley
TTITLE8=Sunset Corcovado
TTITLE9=Black Art
EXTD=YEAR: 2004
EXTT0=
EXTT1=
EXTT2=
EXTT3=
EXTT4=
EXTT5=
EXTT6=
EXTT7=
EXTT8=
EXTT9=
PLAYORDER=
